<svg preserveAspectRatio="none" overflow="visible" style="display: block;" width="14.3333" height="14.3333" viewBox="0 0 14.3333 14.3333" fill="none" xmlns="http://www.w3.org/2000/svg">
<g id="Vector">
<path d="M5.97329 9.87331C6.07329 9.97331 6.19995 10.02 6.32662 10.02C6.45329 10.02 6.57995 9.97331 6.67995 9.87331L9.03329 7.51998C9.22662 7.32665 9.22662 7.00665 9.03329 6.81332L6.67995 4.45998C6.48662 4.26665 6.16662 4.26665 5.97329 4.45998C5.77995 4.65332 5.77995 4.97331 5.97329 5.16665L7.97329 7.16665L5.97329 9.16665C5.77995 9.35998 5.77995 9.67998 5.97329 9.87331Z" fill="#637C8F"/>
<path fill-rule="evenodd" clip-rule="evenodd" d="M0 7.16667C0 11.12 3.21333 14.3333 7.16667 14.3333C11.12 14.3333 14.3333 11.12 14.3333 7.16667C14.3333 3.21333 11.12 0 7.16667 0C3.21333 0 0 3.21333 0 7.16667ZM1 7.16667C1 3.76667 3.76667 1 7.16667 1C10.5667 1 13.3333 3.76667 13.3333 7.16667C13.3333 10.5667 10.5667 13.3333 7.16667 13.3333C3.76667 13.3333 1 10.5667 1 7.16667Z" fill="#637C8F"/>
</g>
</svg>
